# File created by Blade
# Date/Time:  Wed Apr 08 14:54:55 2015
#---------------------------------------------------------
:version 1.10
:name HOM
:units
  mass 1.0
  length 1.000000
  angle deg
:documentation
     Acclaim Skeleton File
:root
   axis xyz
   order TX TY TZ RX RY RZ
   position 0.000000 0.000000 0.000000
   orientation 0 0 0
:bonedata
   begin
      id 1
      name Spine_dum
      direction 0.000000 1.000000 0.000000
      length 4.885285
      axis 0.0 0.0 0.0 xyz
   end
   begin
      id 2
      name LeftUpLeg_dum
      direction 1.000000 0.000000 0.000000
      length 2.672193
      axis 0.0 0.0 0.0 xyz
   end
   begin
      id 3
      name RightUpLeg_dum
      direction -1.000000 0.000000 0.000000
      length 2.672193
      axis 0.0 0.0 0.0 xyz
   end
   begin
      id 4
      name Spine
      direction 0.000000 1.000000 0.000000
      length 0.000000
      axis 0.0 0.0 0.0 xyz
      dof rx ry rz
   end
   begin
      id 5
      name Spine_dum1
      direction 0.000000 1.000000 0.000000
      length 16.494159
      axis 0.0 0.0 0.0 xyz
   end
   begin
      id 6
      name Spine_dum2
      direction 0.000000 1.000000 0.000000
      length 10.663448
      axis 0.0 0.0 0.0 xyz
   end
   begin
      id 7
      name Spine_dum3
      direction 0.000000 1.000000 0.000000
      length 10.663448
      axis 0.0 0.0 0.0 xyz
   end
   begin
      id 8
      name Head
      direction 0.000000 1.000000 0.000000
      length 4.527550
      axis 0.0 0.0 0.0 xyz
      dof rx ry rz
   end
   begin
      id 9
      name LeftShoulder
      direction 1.000000 0.000000 0.000000
      length 7.531907
      axis 0.0 0.0 -90.0 xyz
      dof rx ry rz
   end
   begin
      id 10
      name LeftArm
      direction 1.000000 0.000000 0.000000
      length 10.229199
      axis 0.0 0.0 -90.0 xyz
      dof rx ry rz
   end
   begin
      id 11
      name LeftForeArm
      direction 1.000000 0.000000 0.000000
      length 8.673495
      axis 0.0 0.0 -90.0 xyz
      dof ry rz rx
   end
   begin
      id 12
      name LeftHand
      direction 0.000000 0.000000 0.000000
      length 0.000000
      axis 0.0 0.0 -90.0 xyz
      dof rx ry rz
   end
   begin
      id 13
      name LeftHand_dum1
      direction 0.000000 0.000000 0.000000
      length 0.000000
      axis 0.0 0.0 -90.0 xyz
   end
   begin
      id 14
      name LeftHand_dum2
      direction 1.000000 0.000000 0.000000
      length 3.937000
      axis 0.0 0.0 -90.0 xyz
   end
   begin
      id 15
      name LeftHandThumb1
      direction 0.000000 0.000000 1.000000
      length 3.937000
      axis 0.0 0.0 -90.0 xyz
      dof rx rz ry
   end
   begin
      id 16
      name RightShoulder
      direction -1.000000 0.000000 0.000000
      length 7.531907
      axis 0.0 0.0 90.0 xyz
      dof rx ry rz
   end
   begin
      id 17
      name RightArm
      direction -1.000000 0.000000 0.000000
      length 10.229199
      axis 0.0 0.0 90.0 xyz
      dof rx ry rz
   end
   begin
      id 18
      name RightForeArm
      direction -1.000000 0.000000 0.000000
      length 8.673495
      axis 0.0 0.0 90.0 xyz
      dof ry rz rx
   end
   begin
      id 19
      name RightHand
      direction 0.000000 0.000000 0.000000
      length 0.000000
      axis 0.0 0.0 90.0 xyz
      dof rx ry rz
   end
   begin
      id 20
      name RightHand_dum1
      direction 0.000000 0.000000 0.000000
      length 0.000000
      axis 0.0 0.0 90.0 xyz
   end
   begin
      id 21
      name RightHand_dum2
      direction -1.000000 0.000000 0.000000
      length 3.937000
      axis 0.0 0.0 90.0 xyz
   end
   begin
      id 22
      name RightHandThumb1
      direction 0.000000 0.000000 1.000000
      length 3.937000
      axis 0.0 0.0 90.0 xyz
      dof rx rz ry
   end
   begin
      id 23
      name LeftUpLeg
      direction 0.000000 -1.000000 0.000000
      length 16.263388
      axis 0.0 0.0 0.0 xyz
      dof rx ry rz
   end
   begin
      id 24
      name LeftLeg
      direction 0.000000 -1.000000 0.000000
      length 14.328163
      axis 0.0 0.0 0.0 xyz
      dof rx ry rz
   end
   begin
      id 25
      name LeftFoot
      direction 0.000000 -0.258819 0.965926
      length 5.031290
      axis 15.0 0.0 0.0 xyz
      dof rx ry rz
   end
   begin
      id 26
      name LeftToeBase
      direction 0.000000 0.000000 1.000000
      length 2.952750
      axis 0.0 0.0 0.0 xyz
      dof rx ry rz
   end
   begin
      id 27
      name RightUpLeg
      direction 0.000000 -1.000000 0.000000
      length 16.263388
      axis 0.0 0.0 0.0 xyz
      dof rx ry rz
   end
   begin
      id 28
      name RightLeg
      direction 0.000000 -1.000000 0.000000
      length 14.328163
      axis 0.0 0.0 0.0 xyz
      dof rx ry rz
   end
   begin
      id 29
      name RightFoot
      direction 0.000000 -0.258819 0.965926
      length 5.031290
      axis 15.0 0.0 0.0 xyz
      dof rx ry rz
   end
   begin
      id 30
      name RightToeBase
      direction 0.000000 0.000000 1.000000
      length 2.952750
      axis 0.0 0.0 0.0 xyz
      dof rx ry rz
   end
:hierarchy
   begin
      root Spine_dum LeftUpLeg_dum RightUpLeg_dum
      Spine_dum Spine
      LeftUpLeg_dum LeftUpLeg
      RightUpLeg_dum RightUpLeg
      Spine Spine_dum1 Spine_dum2 Spine_dum3
      Spine_dum1 Head
      Spine_dum2 LeftShoulder
      Spine_dum3 RightShoulder
      LeftShoulder LeftArm
      LeftArm LeftForeArm
      LeftForeArm LeftHand
      LeftHand LeftHand_dum1 LeftHand_dum2
      LeftHand_dum1 LeftHandThumb1
      RightShoulder RightArm
      RightArm RightForeArm
      RightForeArm RightHand
      RightHand RightHand_dum1 RightHand_dum2
      RightHand_dum1 RightHandThumb1
      LeftUpLeg LeftLeg
      LeftLeg LeftFoot
      LeftFoot LeftToeBase
      RightUpLeg RightLeg
      RightLeg RightFoot
      RightFoot RightToeBase
   end

# File created by Blade
# Date/Time:  Wed Apr 08 14:55:03 2015
# Frame Rate: 120.000 fps
#------------------------------------------------------
:FULLY-SPECIFIED
:DEGREES
1
root 2.941247 32.708057 -12.603172 13.142284 -0.041421 -0.525787
Spine -16.977685 -6.413840 0.740028
Head 16.276601 -4.044562 -0.867054
LeftShoulder -18.187399 37.601095 23.464534
LeftArm 59.460986 -55.087100 -60.743233
LeftForeArm 7.970651 -0.000000 -3.661883
LeftHand 4.224324 -0.000000 5.448040
LeftHandThumb1 -26.253704 0.000000 33.147579
RightShoulder -6.077900 4.489962 -31.004531
RightArm 13.024553 15.983652 44.360218
RightForeArm -7.906284 -0.000000 0.296595
RightHand 1.760135 -0.000000 0.905634
RightHandThumb1 -24.326973 -0.000000 -32.862282
LeftUpLeg -4.724547 -5.623578 1.895291
LeftLeg -5.456440 -0.000000 0.000000
LeftFoot -5.176088 8.605030 -17.732548
LeftToeBase -5.538326 -0.000000 0.000000
RightUpLeg -4.122713 0.242626 1.879211
RightLeg -4.837402 -0.000000 0.000000
RightFoot -7.188131 -10.151715 9.884375
RightToeBase 0.566479 -0.000000 -0.000000
2
root 2.944854 32.707959 -12.602114 13.120887 -0.041961 -0.523654
Spine -16.986038 -6.424757 0.746572
Head 16.329400 -4.014251 -0.890187
LeftShoulder -18.178122 37.580821 23.475941
LeftArm 59.433845 -55.070731 -60.767298
LeftForeArm 7.946959 -0.000000 -3.665934
LeftHand 4.138472 -0.000000 5.380308
LeftHandThumb1 -26.253704 0.000000 33.147579
RightShoulder -6.061057 4.498833 -30.992941
RightArm 12.983702 15.993172 44.333773
RightForeArm -7.926567 -0.000000 0.292982
RightHand 1.812247 -0.000000 0.745941
RightHandThumb1 -24.326973 -0.000000 -32.862282
LeftUpLeg -4.704872 -5.647844 1.889190
LeftLeg -5.448173 -0.000000 0.000000
LeftFoot -5.197508 8.616851 -17.764465
LeftToeBase -5.478261 -0.000000 0.000000
RightUpLeg -4.096180 0.262780 1.867604
RightLeg -4.842183 -0.000000 0.000000
RightFoot -7.195994 -10.177943 9.905641
RightToeBase 0.548251 -0.000000 -0.000000
3
root 2.948980 32.707959 -12.600919 13.096141 -0.038771 -0.514545
Spine -16.987362 -6.428601 0.742284
Head 16.352566 -3.996770 -0.895146
LeftShoulder -18.191498 37.594502 23.459792
LeftArm 59.507920 -55.063197 -60.845703
LeftForeArm 7.894206 -0.000000 -3.693913
LeftHand 4.120889 0.000000 5.340001
LeftHandThumb1 -26.253704 0.000000 33.147579
RightShoulder -6.064130 4.487974 -30.986720
RightArm 12.975569 16.019367 44.331496
RightForeArm -7.931983 -0.000000 0.311602
RightHand 1.565243 0.000000 0.604738
RightHandThumb1 -24.326973 -0.000000 -32.862282
LeftUpLeg -4.688922 -5.664592 1.874269
LeftLeg -5.426096 -0.000000 0.000000
LeftFoot -5.201629 8.611981 -17.760621
LeftToeBase -5.505872 -0.000000 0.000000
RightUpLeg -4.068540 0.247129 1.850760
RightLeg -4.841066 -0.000000 0.000000
RightFoot -7.203690 -10.155520 9.906744
RightToeBase 0.545932 -0.000000 -0.000000
4
root 2.958510 32.708575 -12.598682 13.069869 -0.059952 -0.459399
Spine -16.991502 -6.422292 0.693202
Head 16.380853 -3.981195 -0.906927
LeftShoulder -18.189032 37.602356 23.445197
LeftArm 59.527357 -55.066035 -60.904035
LeftForeArm 7.902383 -0.000000 -3.667039
LeftHand 4.091449 -0.000000 5.394159
LeftHandThumb1 -26.253704 0.000000 33.147579
RightShoulder -6.048991 4.482202 -30.961361
RightArm 12.942005 16.035622 44.279799
RightForeArm -8.090301 -0.000000 0.300601
RightHand 1.525521 0.000000 0.598683
RightHandThumb1 -24.326973 -0.000000 -32.862282
LeftUpLeg -4.704058 -5.453506 1.778078
LeftLeg -5.323070 -0.000000 0.000000
LeftFoot -5.173162 8.361314 -17.792983
LeftToeBase -5.549707 -0.000000 0.000000
RightUpLeg -4.040368 0.230996 1.773259
RightLeg -4.838494 -0.000000 0.000000
RightFoot -7.222176 -10.108533 9.955417
RightToeBase 0.511627 -0.000000 -0.000000
5
root 2.962120 32.707908 -12.598372 13.051447 -0.060270 -0.454831
Spine -16.993751 -6.411151 0.689632
Head 16.382782 -3.968232 -0.905822
LeftShoulder -18.155410 37.562182 23.462151
LeftArm 59.379715 -54.989804 -60.741553
LeftForeArm 7.709983 -0.000000 -3.719632
LeftHand 4.114435 -0.000000 5.371409
LeftHandThumb1 -26.253704 0.000000 33.147579
RightShoulder -6.063091 4.471608 -30.966934
RightArm 12.923568 16.023858 44.275951
RightForeArm -8.091181 -0.000000 0.307989
RightHand 1.527979 -0.000000 0.702498
RightHandThumb1 -24.326973 -0.000000 -32.862282
LeftUpLeg -4.697305 -5.412669 1.764028
LeftLeg -5.302045 -0.000000 0.000000
LeftFoot -5.175852 8.296487 -17.790343
LeftToeBase -5.582916 -0.000000 0.000000
RightUpLeg -4.021148 0.233251 1.760237
RightLeg -4.836287 -0.000000 0.000000
RightFoot -7.251518 -10.098526 9.977164
RightToeBase 0.573693 -0.000000 -0.000000
6
root 2.965871 32.707465 -12.597550 13.034078 -0.060981 -0.443554
Spine -17.003755 -6.411703 0.675690
Head 16.401902 -3.970933 -0.894343
LeftShoulder -18.162819 37.609648 23.445741
LeftArm 59.401800 -54.976313 -60.746527
LeftForeArm 7.616537 -0.000000 -3.727212
LeftHand 4.117495 -0.000000 5.354281
LeftHandThumb1 -26.253704 0.000000 33.147579
RightShoulder -6.062385 4.418713 -30.965826
RightArm 12.934775 16.011959 44.286888
RightForeArm -7.962454 -0.000000 0.340857
RightHand 1.855281 -0.000000 0.668037
RightHandThumb1 -24.326973 -0.000000 -32.862282
LeftUpLeg -4.675447 -5.464032 1.748993
LeftLeg -5.306460 -0.000000 0.000000
LeftFoot -5.186546 8.348832 -17.784220
LeftToeBase -5.561704 -0.000000 0.000000
RightUpLeg -4.002544 0.217300 1.744694
RightLeg -4.833718 -0.000000 0.000000
RightFoot -7.253417 -10.089417 9.973017
RightToeBase 0.518459 -0.000000 -0.000000
